# xmcd
#
# Track frame offsets: 
#        190
#        16000
#        47160
#        69490
#        83815
#        107890
#        131277
#        140725
#        155257
#        166312
#        177655
#        190322
#        206455
#        219355
#        234912
#        250640
#
# Disc length: 3542 seconds
#
# Revision: 3
# Processed by: cddbd v1.5.2PL0 Copyright (c) Steve Scherf et al.
# Submitted via: ExactAudioCopy v0.95b4
#
DISCID=d40dd410
DTITLE=R. L. Burnside and The Sound Machine - Bad Luck City
DYEAR=1900
DGENRE=Blues
TTITLE0=Talking About The Ghetto
TTITLE1=Bad Luck City/Friend of Mine
TTITLE2=Shake For Me
TTITLE3=Boogie Chillen
TTITLE4=All She Do
TTITLE5=Long Haired Doney/Poor Boy Long Way from Home
TTITLE6=Burnsides' Blues
TTITLE7=Cross Saw
TTITLE8=Outskirts Of Town
TTITLE9=My Eyes Keep Me In Trouble
TTITLE10=Look On Yonder's Wall
TTITLE11=Jumper On The Line
TTITLE12=No Place To Go
TTITLE13=Bad Sign
TTITLE14=Killing Floor
TTITLE15=You Don't Love Me
EXTD=
EXTT0=
EXTT1=
EXTT2=
EXTT3=
EXTT4=
EXTT5=
EXTT6=
EXTT7=
EXTT8=
EXTT9=
EXTT10=
EXTT11=
EXTT12=
EXTT13=
EXTT14=
EXTT15=
PLAYORDER=
